#!OML:ASF E:\CV Data\Top Level 1\Subject 1\Session 1\player.ASF
:FULLY-SPECIFIED
:DEGREES
489
root 3.43595 17.2342 -5.90344 6.57009 -34.3687 -0.70382
lowerback 1.60113 2.14719 -2.67837
upperback -2.56152 2.79308 0.601155
thorax -3.69444 1.47283 1.98135
lowerneck -17.9935 -0.721039 -7.29397
upperneck 15.643 -1.77847 13.8046
head 8.00212 0.0667933 5.67035
rclavicle 9.20757e-014 1.13556e-014
rhumerus -10.5624 47.2265 -95.9939
rradius 54.5125
rwrist -5.29914
rhand -36.8503 14.5596
rfingers 7.12502
rthumb -9.93017 -15.1862
lclavicle 9.20757e-014 1.13556e-014
lhumerus -23.6886 -37.0883 108.839
lradius 71.8352
lwrist 44.1422
lhand -43.0696 43.7263
lfingers 7.12502
lthumb -15.9254 73.0915
rfemur -12.3429 0.00344071 21.6637
rtibia 40.176
rfoot -28.8446 -5.7653
rtoes 4.66811
lfemur -20.4294 8.70172 -22.3149
ltibia 36.4651
lfoot -18.369 3.03199
ltoes 2.90111
490
root 3.44668 17.2304 -5.9434 6.60893 -34.8424 -0.831088
lowerback 1.5524 2.19125 -2.53115
upperback -2.58929 2.85703 0.582603
thorax -3.69055 1.50052 1.87795
lowerneck -18.0047 -0.637158 -7.20314
upperneck 15.7576 -1.7257 13.9339
head 8.03698 0.111623 5.71058
rclavicle -1.43115e-013 -6.70588e-015
rhumerus -8.84589 47.7904 -94.7256
rradius 54.9551
rwrist -5.14443
rhand -36.8346 14.4508
rfingers 7.12502
rthumb -9.91507 -15.2957
lclavicle -1.43115e-013 -6.70588e-015
lhumerus -22.9548 -36.7357 108.324
lradius 72.5147
lwrist 43.1646
lhand -43.5508 43.293
lfingers 7.12502
lthumb -16.3888 72.6206
rfemur -12.1878 0.312221 21.7847
rtibia 39.6398
rfoot -28.9959 -5.64106
rtoes 5.25176
lfemur -20.6254 9.01834 -22.1823
ltibia 36.7036
lfoot -18.3831 3.22749
ltoes 2.65062
491
root 3.45846 17.2259 -5.98324 6.66917 -35.31 -0.982692
lowerback 1.50482 2.20722 -2.35507
upperback -2.63577 2.88485 0.588753
thorax -3.70433 1.51008 1.78537
lowerneck -17.9425 -0.524948 -7.13882
upperneck 15.8772 -1.62774 14.0501
head 8.05464 0.172698 5.75498
rclavicle -5.9902e-014 -3.50979e-016
rhumerus -7.05349 48.3992 -93.3609
rradius 55.4423
rwrist -4.87764
rhand -36.8216 14.3474
rfingers 7.12502
rthumb -9.90257 -15.3997
lclavicle -5.9902e-014 -3.50979e-016
lhumerus -22.2242 -36.2334 107.814
lradius 73.2124
lwrist 41.9455
lhand -43.8363 42.9149
lfingers 7.12502
lthumb -16.6636 72.2196
rfemur -12.0885 0.618537 21.9248
rtibia 39.1752
rfoot -29.1187 -5.50706
rtoes 5.78684
lfemur -20.8444 9.30921 -22.031
ltibia 36.9686
lfoot -18.4 3.45273
ltoes 2.4009
492
root 3.47141 17.2204 -6.02258 6.74531 -35.7644 -1.15405
lowerback 1.45848 2.21322 -2.14054
upperback -2.6797 2.90045 0.595261
thorax -3.71341 1.51233 1.67241
lowerneck -17.8844 -0.406913 -7.05631
upperneck 16.0063 -1.52444 14.1507
head 8.07519 0.236288 5.79182
rclavicle 2.86925e-014 1.26974e-014
rhumerus -5.10532 48.9713 -91.851
rradius 55.9594
rwrist -4.48207
rhand -36.8022 14.2532
rfingers 7.12502
rthumb -9.8838 -15.4948
lclavicle 2.86925e-014 1.26974e-014
lhumerus -21.4767 -35.6823 107.298
lradius 73.9448
lwrist 40.65
lhand -44.0212 42.5286
lfingers 7.12502
lthumb -16.8416 71.8183
rfemur -12.0325 0.911893 22.0788
rtibia 38.777
rfoot -29.2169 -5.36511
rtoes 6.24626
lfemur -21.0848 9.56686 -21.8663
ltibia 37.263
lfoot -18.4192 3.71347
ltoes 2.13788
493
root 3.48467 17.2139 -6.06208 6.81935 -36.2252 -1.33325
lowerback 1.42202 2.20848 -1.92505
upperback -2.72275 2.90185 0.615052
thorax -3.72715 1.50761 1.57295
lowerneck -17.8051 -0.276607 -6.97625
upperneck 16.1431 -1.40147 14.2334
head 8.09175 0.306801 5.82488
rclavicle -3.99724e-015 -3.83903e-015
rhumerus -3.02486 49.5297 -90.2031
rradius 56.5039
rwrist -3.96791
rhand -36.775 14.1755
rfingers 7.12502
rthumb -9.85754 -15.5737
lclavicle -3.99724e-015 -3.83903e-015
lhumerus -20.7145 -35.0568 106.778
lradius 74.7184
lwrist 39.3344
lhand -44.0646 42.2181
lfingers 7.12502
lthumb -16.8833 71.5042
rfemur -12 1.21747 22.2374
rtibia 38.4436
rfoot -29.3033 -5.21385
rtoes 6.65263
lfemur -21.3312 9.82381 -21.696
ltibia 37.5865
lfoot -18.4396 3.99672
ltoes 1.88835
494
root 3.49797 17.2065 -6.10186 6.88405 -36.6894 -1.51395
lowerback 1.39397 2.20741 -1.70245
upperback -2.74804 2.90795 0.624554
thorax -3.72652 1.50454 1.45881
lowerneck -17.7553 -0.150679 -6.86334
upperneck 16.2887 -1.29082 14.3036
head 8.11793 0.373544 5.84738
rclavicle 6.49113e-014 3.23025e-016
rhumerus -0.765314 50.0058 -88.3922
rradius 57.0702
rwrist -3.3803
rhand -36.7204 14.1276
rfingers 7.12502
rthumb -9.80486 -15.6242
lclavicle 6.49113e-014 3.23025e-016
lhumerus -19.8891 -34.5159 106.199
lradius 75.5436
lwrist 38.16
lhand -44.103 41.9198
lfingers 7.12502
lthumb -16.9204 71.2028
rfemur -11.9808 1.53781 22.3941
rtibia 38.1769
rfoot -29.3929 -5.03751
rtoes 7.04999
lfemur -21.5778 10.0877 -21.5244
ltibia 37.9363
lfoot -18.4584 4.29316
ltoes 1.64622
495
root 3.51141 17.1979 -6.14193 6.93169 -37.1417 -1.67784
lowerback 1.3792 2.20265 -1.49742
upperback -2.76424 2.90826 0.631041
thorax -3.72453 1.49894 1.35135
lowerneck -17.7153 -0.0279579 -6.73131
upperneck 16.4394 -1.18648 14.3562
head 8.14821 0.437324 5.86005
rclavicle 5.65162e-014 1.04362e-015
rhumerus 1.64185 50.4002 -86.4358
rradius 57.6525
rwrist -2.77416
rhand -36.6314 14.1013
rfingers 7.12502
rthumb -9.71904 -15.6545
lclavicle 5.65162e-014 1.04362e-015
lhumerus -18.9964 -34.0994 105.557
lradius 76.4129
lwrist 37.1669
lhand -44.2042 41.5809
lfingers 7.12502
lthumb -17.0177 70.8555
rfemur -11.9821 1.84028 22.5356
rtibia 37.9779
rfoot -29.4809 -4.85983
rtoes 7.31658
lfemur -21.8309 10.3547 -21.368
ltibia 38.3114
lfoot -18.4639 4.59502
ltoes 1.38057
496
root 3.5248 17.1885 -6.18234 6.95434 -37.5818 -1.8187
lowerback 1.38257 2.18236 -1.32025
upperback -2.7806 2.887 0.646594
thorax -3.73422 1.48356 1.26907
lowerneck -17.6505 0.103289 -6.61714
upperneck 16.5997 -1.06696 14.4065
head 8.1754 0.506353 5.87665
rclavicle 7.87451e-015 -5.46658e-015
rhumerus 4.15519 50.7506 -84.3629
rradius 58.2507
rwrist -2.21202
rhand -36.5096 14.11
rfingers 7.12502
rthumb -9.60153 -15.6512
lclavicle 7.87451e-015 -5.46658e-015
lhumerus -18.0355 -33.7859 104.839
lradius 77.3252
lwrist 36.3901
lhand -44.4094 41.1663
lfingers 7.12502
lthumb -17.2153 70.4238
rfemur -11.9945 2.12928 22.653
rtibia 37.8468
rfoot -29.5828 -4.64508
rtoes 7.60109
lfemur -22.0869 10.6303 -21.231
ltibia 38.7133
lfoot -18.4542 4.89438
ltoes 1.08881
497
root 3.53797 17.178 -6.22309 6.94778 -38.011 -1.94026
lowerback 1.41021 2.16027 -1.16599
upperback -2.78861 2.86249 0.661975
thorax -3.75021 1.46717 1.19876
lowerneck -17.5849 0.228441 -6.50222
upperneck 16.7664 -0.955502 14.4503
head 8.20554 0.571135 5.89018
rclavicle 1.01046e-013 -4.79568e-015
rhumerus 6.77843 51.0066 -82.1687
rradius 58.865
rwrist -1.72993
rhand -36.3538 14.1301
rfingers 7.12502
rthumb -9.4512 -15.638
lclavicle 1.01046e-013 -4.79568e-015
lhumerus -16.9783 -33.6238 104.026
lradius 78.2476
lwrist 35.7451
lhand -44.6396 40.7094
lfingers 7.12502
lthumb -17.4369 69.9473
rfemur -12.0184 2.38 22.7515
rtibia 37.782
rfoot -29.6876 -4.40549
rtoes 7.79975
lfemur -22.3433 10.9182 -21.1082
ltibia 39.1486
lfoot -18.4301 5.18831
ltoes 0.762743
